<svg id="img_logo-large" xmlns="http://www.w3.org/2000/svg" width="325.975" height="36" viewBox="0 0 325.975 36">
  <g id="Group_145" data-name="Group 145" transform="translate(48.327 8.182)">
    <path id="Path_146" data-name="Path 146" d="M60.991,19.064h1.2C63.936,12.736,59.9,7.5,54.336,7.5a9.928,9.928,0,1,0,0,19.855,9.8,9.8,0,0,0,7.527-3.382l-2.836-3.382a6.162,6.162,0,0,1-4.8,2.291,5.645,5.645,0,0,1-5.236-3.818h12Zm-7.418-7.091c2.182,0,4.145,1.2,4.473,3.164H49.318A4.173,4.173,0,0,1,53.573,11.973Z" transform="translate(-44.3 -7.5)" fill="#060e26"/>
  </g>
  <g id="Group_146" data-name="Group 146" transform="translate(110.182 8.182)">
    <path id="Path_147" data-name="Path 147" d="M117.691,19.064h1.2C120.636,12.736,116.6,7.5,111.036,7.5a9.928,9.928,0,1,0,0,19.855,9.8,9.8,0,0,0,7.527-3.382l-2.836-3.382a6.162,6.162,0,0,1-4.8,2.291,5.645,5.645,0,0,1-5.236-3.818h12Zm-7.527-7.091c2.182,0,4.145,1.2,4.473,3.164h-8.727A4.173,4.173,0,0,1,110.164,11.973Z" transform="translate(-101 -7.5)" fill="#060e26"/>
  </g>
  <g id="Group_147" data-name="Group 147" transform="translate(131.127 8.182)">
    <path id="Path_148" data-name="Path 148" d="M136.891,19.064h1.2C139.836,12.736,135.8,7.5,130.236,7.5a9.928,9.928,0,1,0,0,19.855,9.8,9.8,0,0,0,7.527-3.382l-2.836-3.382a6.162,6.162,0,0,1-4.8,2.291,5.645,5.645,0,0,1-5.236-3.818h12Zm-7.527-7.091c2.182,0,4.145,1.2,4.473,3.164h-8.727A4.354,4.354,0,0,1,129.364,11.973Z" transform="translate(-120.2 -7.5)" fill="#060e26"/>
  </g>
  <g id="Group_148" data-name="Group 148" transform="translate(29.127 8.4)">
    <path id="Path_149" data-name="Path 149" d="M38.482,7.7v12h0c0,1.527-1.527,2.727-3.382,2.727s-3.382-1.2-3.382-2.727V7.7H26.7v12c0,3.927,3.709,7.2,8.4,7.2s8.4-3.164,8.4-7.2V7.7Z" transform="translate(-26.7 -7.7)" fill="#060e26"/>
  </g>
  <g id="Group_149" data-name="Group 149">
    <path id="Path_150" data-name="Path 150" d="M8.4,8.4a8.89,8.89,0,0,0-3.382.655V0H0V20.509c0,3.927,3.709,7.2,8.4,7.2s8.4-3.164,8.4-7.2V15.6C16.691,11.564,12.982,8.4,8.4,8.4Zm0,14.727c-1.855,0-3.382-1.2-3.382-2.727V15.491h0c0-1.527,1.527-2.727,3.382-2.727s3.382,1.2,3.382,2.727V20.4h0A3.173,3.173,0,0,1,8.4,23.127Z" fill="#060e26"/>
  </g>
  <g id="Group_150" data-name="Group 150" transform="translate(96.873 8.4)">
    <path id="Path_151" data-name="Path 151" d="M97.418,7.7a8.89,8.89,0,0,0-3.382.655V7.7H88.8V26.9h5.236v-12h0c0-1.527,1.527-2.727,3.382-2.727a4.522,4.522,0,0,1,1.745.327l2.727-3.709A10.8,10.8,0,0,0,97.418,7.7Z" transform="translate(-88.8 -7.7)" fill="#060e26"/>
  </g>
  <g id="Group_151" data-name="Group 151" transform="translate(76.691 7.527)">
    <path id="Path_152" data-name="Path 152" d="M78.7,6.9c-4.582,0-8.4,3.164-8.4,7.2v4.909c0,3.927,3.709,7.2,8.4,7.2a8.89,8.89,0,0,0,3.382-.655v1.855c0,1.527-1.527,2.509-3.382,2.509a10.968,10.968,0,0,1-2.727-.436v4.8c1.091.109,3.055.218,4.036.218,4.582,0,7.091-3.273,7.091-7.2V14.1C87.1,10.064,83.282,6.9,78.7,6.9Zm3.382,12h0c0,1.527-1.527,2.727-3.382,2.727s-3.382-1.2-3.382-2.727V13.991h0c0-1.527,1.527-2.727,3.382-2.727s3.382,1.2,3.382,2.727V18.9Z" transform="translate(-70.3 -6.9)" fill="#060e26"/>
  </g>
  <g id="Group_152" data-name="Group 152" transform="translate(152.4 8.4)">
    <path id="Path_153" data-name="Path 153" d="M148.1,7.7a8.89,8.89,0,0,0-3.382.655V7.7H139.7V26.9h5.018v-12h0c0-1.527,1.527-2.727,3.382-2.727s3.382,1.2,3.382,2.727v12H156.5v-12C156.5,10.973,152.791,7.7,148.1,7.7Z" transform="translate(-139.7 -7.7)" fill="#060e26"/>
  </g>
  <g id="Group_153" data-name="Group 153" transform="translate(20.4)">
    <rect id="Rectangle_738" data-name="Rectangle 738" width="5.018" height="27.6" fill="#060e26"/>
  </g>
  <g id="Group_157" data-name="Group 157" transform="translate(179.994 0.109)">
    <g id="s_1_" transform="translate(129.715 8.387)">
      <path id="Path_154" data-name="Path 154" d="M292.518,14.892c-4.8.109-4.364-2.727-.436-2.945a4.59,4.59,0,0,1,3.382,1.309l3.491-2.4A8.934,8.934,0,0,0,292.845,7.8c-4.582-.218-7.854,2.291-8.073,5.018-.218,3.491,1.855,6,7.2,6.109,4.145.109,4.145,3.709-.109,3.6-1.964,0-3.382-1.309-4.582-1.964L283.9,23.619c1.746,1.527,3.164,3.055,7.091,3.273,5.346.327,9.055-2.509,9.164-5.564C300.373,17.183,297.318,14.783,292.518,14.892Z" transform="translate(-283.9 -7.788)" fill="#0835af"/>
    </g>
    <g id="n_1_" transform="translate(20.188 8.291)">
      <path id="Path_155" data-name="Path 155" d="M191.9,7.7a8.89,8.89,0,0,0-3.382.655V7.7H183.5V26.9h5.018v-12h0c0-1.527,1.527-2.727,3.382-2.727s3.382,1.2,3.382,2.727v12H200.3v-12C200.191,10.973,196.482,7.7,191.9,7.7Z" transform="translate(-183.5 -7.7)" fill="#0835af"/>
    </g>
    <g id="l_1_" transform="translate(60.443)">
      <rect id="Rectangle_739" data-name="Rectangle 739" width="5.018" height="27.6" fill="#0835af"/>
    </g>
    <g id="i_1_" transform="translate(102.552 1.964)">
      <g id="Group_154" data-name="Group 154" transform="translate(0 6.327)">
        <rect id="Rectangle_740" data-name="Rectangle 740" width="5.018" height="19.2" fill="#0835af"/>
      </g>
      <g id="Group_155" data-name="Group 155">
        <rect id="Rectangle_741" data-name="Rectangle 741" width="5.018" height="5.018" fill="#0835af"/>
      </g>
    </g>
    <g id="c_1_" transform="translate(110.188 8.073)">
      <path id="Path_156" data-name="Path 156" d="M276.036,22.773a5.4,5.4,0,0,1-5.455-5.455,5.543,5.543,0,0,1,5.455-5.455,5.36,5.36,0,0,1,4.582,2.509h0l2.946-3.491h0A10.147,10.147,0,0,0,276.036,7.5a9.928,9.928,0,1,0,0,19.855,9.8,9.8,0,0,0,7.527-3.382l-2.946-3.491A5.726,5.726,0,0,1,276.036,22.773Z" transform="translate(-266 -7.5)" fill="#0835af"/>
    </g>
    <g id="a_2_" transform="translate(0 8.291)">
      <path id="Path_157" data-name="Path 157" d="M182.237,16.209V14.9c0-3.927-3.709-7.2-8.4-7.2-3.927,0-7.418,2.182-8.618,5.236l3.382,2.291a5.314,5.314,0,0,1,5.127-3.055,3.249,3.249,0,0,1,3.382,3.382v.655h-6.655s-5.673,0-5.455,6.218c.109,1.964,2.182,5.018,6.982,5.018,3.818,0,4.8-1.309,5.236-1.636v1.2h5.018v-10.8Zm-9.927,7.2c-3.055,0-2.945-3.382-.436-3.382h5.236v.327h0C177.219,21.336,175.364,23.409,172.31,23.409Z" transform="translate(-164.994 -7.7)" fill="#0835af"/>
    </g>
    <g id="a_1_" transform="translate(39.709 8.291)">
      <path id="Path_158" data-name="Path 158" d="M218.637,16.209V14.9c0-3.927-3.709-7.2-8.4-7.2-3.927,0-7.418,2.182-8.618,5.236L205,15.227a5.314,5.314,0,0,1,5.127-3.055,3.249,3.249,0,0,1,3.382,3.382v.655h-6.655s-5.673,0-5.455,6.218c.109,1.964,2.182,5.018,6.982,5.018,3.818,0,4.8-1.309,5.236-1.636v1.2h5.018v-10.8Zm-9.818,7.2c-3.055,0-2.945-3.382-.436-3.382h5.236v.327h0C213.619,21.336,211.873,23.409,208.819,23.409Z" transform="translate(-201.394 -7.7)" fill="#0835af"/>
    </g>
    <g id="Group_156" data-name="Group 156" transform="translate(89.679 1.964)">
      <path id="Path_159" data-name="Path 159" d="M252.218,27.536V13.245h4.909V8.227h-4.909V1.9H247.2V27.536Z" transform="translate(-247.2 -1.9)" fill="#0835af"/>
    </g>
    <g id="y_1_" transform="translate(69.17 8.4)">
      <path id="Path_160" data-name="Path 160" d="M240.182,27v-.655A8.5,8.5,0,0,1,236.8,27c-4.582,0-8.4-3.164-8.4-7.2V7.8h5.018v12c0,1.527,1.527,2.727,3.382,2.727s3.382-1.2,3.382-2.727h0V7.8H245.2V28.091c0,3.927-2.509,7.2-7.091,7.2a26.419,26.419,0,0,1-4.036-.218V30.164a11.841,11.841,0,0,0,2.727.436c1.855,0,3.382-.982,3.382-2.509V27Z" transform="translate(-228.4 -7.8)" fill="#0835af"/>
    </g>
  </g>
</svg>
