<?xml version="1.0" encoding="UTF-8"?>
<svg width="1901px" height="1001px" viewBox="0 0 1901 1001" version="1.1" xmlns="http://www.w3.org/2000/svg" xmlns:xlink="http://www.w3.org/1999/xlink">
    <!-- Generator: Sketch 52.6 (67491) - http://www.bohemiancoding.com/sketch -->
    <title>Group 3</title>
    <desc>Created with Sketch.</desc>
    <g id="Page-1" stroke="none" stroke-width="1" fill="none" fill-rule="evenodd">
        <g id="Group-3" transform="translate(1.000000, 1.000000)">
            <rect id="Rectangle-Copy" stroke-opacity="0.01" stroke="#FFFFFF" x="0" y="0" width="1899" height="999"></rect>
            <g id="ensighten-logo" transform="translate(223.000000, 298.000000)" fill-rule="nonzero">
                <path d="M609.41604,23.1170569 L609.41604,0 L631.493734,10.1137124 C632.933584,10.5953177 634.373434,11.0769231 635.813283,12.0401338 L648.29198,17.819398 L676.129073,30.8227425 L690.527569,37.5652174 L731.323308,56.8294314 L763,71.7591973 L727.483709,88.1337793 L708.765664,96.8026756 L609.41604,144 L609.41604,120.401338 L609.41604,110.287625 L622.374687,104.026756 L622.854637,103.545151 L661.730576,85.2441472 L666.050125,83.3177258 L690.047619,71.7591973 L639.172932,47.6789298 L609.41604,33.7123746 L609.41604,23.1170569 Z M534.06391,109.80602 L504.307018,95.8394649 L453.432331,71.7591973 L477.429825,60.2006689 L481.749373,58.2742475 L520.625313,39.9732441 L521.105263,39.4916388 L534.06391,33.2307692 L534.06391,23.5986622 L534.06391,0 L434.234336,46.2341137 L415.516291,54.90301 L380,71.277592 L411.676692,86.2073579 L452.472431,105.471572 L466.870927,112.214047 L494.70802,125.217391 L507.186717,130.996656 C509.106516,131.959866 510.546366,132.441472 511.506266,132.923077 L533.58396,143.036789 L533.58396,119.919732 L533.58396,109.80602 L534.06391,109.80602 Z" id="Shape" fill="#8D8777"></path>
                <path d="M46.9650626,255.339973 C46.9650626,279.310757 61.8213579,296.569721 88.6585366,296.569721 C109.265656,296.569721 119.808833,290.816733 131.789717,279.310757 L160.543837,306.63745 C141.374423,325.334661 122.684245,335.881806 88.1793013,335.881806 C43.13118,335.881806 0,316.225764 0,240.957503 C0,180.551129 33.5464733,146.512616 82.9077126,146.512616 C136.102835,146.512616 165.815425,183.907039 165.815425,234.7251 L165.815425,255.339973 L46.9650626,255.339973 Z M114.537245,204.042497 C109.265656,193.015936 98.7224786,184.86587 82.9077126,184.86587 C66.6137113,184.86587 56.0705339,193.015936 51.2781806,204.042497 C48.4027686,210.754316 47.444298,215.548473 46.9650626,223.698539 L119.329598,223.698539 C118.850363,215.548473 117.891892,210.754316 114.537245,204.042497 Z M349.841793,333.484728 L349.841793,215.069057 C349.841793,194.933599 346.00791,177.674635 330.67238,162.333333 C320.129202,152.265604 304.793672,146.033201 285.624258,146.033201 C267.892551,146.033201 250.640079,152.265604 238.17996,165.209827 L238.17996,147.950863 L191.694133,147.950863 L191.694133,333.005312 L239.138431,333.005312 L239.138431,221.780876 C239.138431,196.371846 255.911668,188.22178 270.767963,188.22178 C285.624258,188.22178 302.397495,196.851262 302.397495,221.780876 L302.397495,333.484728 L349.841793,333.484728 Z M445.209624,335.40239 C490.257746,335.40239 526.200396,315.746348 526.200396,274.996016 C526.200396,243.833997 507.030982,224.177955 469.650626,220.822045 L439.4588,217.945551 C422.685564,216.507304 419.810152,208.836653 419.810152,202.124834 C419.810152,193.015936 427.957152,184.386454 446.64733,184.386454 C462.941332,184.386454 479.714568,187.262948 490.736981,196.851262 L519.970336,168.086321 C501.759394,151.306773 476.839156,146.512616 447.126566,146.512616 C408.308504,146.512616 373.80356,167.12749 373.80356,205.480744 C373.80356,239.519256 394.889914,253.901726 429.394858,257.257636 L459.586684,260.13413 C474.44298,261.572377 479.714568,267.804781 479.714568,277.393094 C479.714568,291.296149 462.462096,296.569721 446.168095,296.569721 C431.3118,296.569721 411.183916,294.652058 395.36915,279.310757 L364.218853,309.513944 C388.18062,332.046481 415.497034,335.40239 445.209624,335.40239 Z M547.765985,333.484728 L595.210283,333.484728 L595.210283,148.430279 L547.765985,148.430279 L547.765985,333.484728 Z M695.849703,403 C666.616348,403 646.488464,397.247012 626.839815,379.029216 L656.552406,349.784861 C667.095583,359.85259 677.638761,364.167331 693.932762,364.167331 C722.686882,364.167331 732.271589,344.511288 732.271589,325.814077 L732.271589,307.116866 C719.81147,320.540505 705.43441,325.334661 686.744232,325.334661 C668.054054,325.334661 652.239288,319.102258 641.216875,309.034529 C623.485168,291.775564 622.047462,267.804781 622.047462,235.683931 C622.047462,203.563081 623.485168,180.071713 641.216875,162.812749 C651.760053,152.74502 668.054054,146.512616 686.744232,146.512616 C706.872116,146.512616 719.81147,151.786189 733.230059,166.168659 L733.230059,148.909695 L779.236651,148.909695 L779.236651,326.772908 C779.715887,370.87915 747.127884,403 695.849703,403 Z M700.642057,187.742364 C672.367172,187.742364 669.49176,211.233732 669.49176,235.683931 C669.49176,260.13413 672.367172,284.104914 700.642057,284.104914 C728.916941,284.104914 732.271589,260.13413 732.271589,235.683931 C731.792353,211.233732 728.437706,187.742364 700.642057,187.742364 Z M971.41002,333.484728 L971.41002,213.63081 C971.41002,174.798141 949.365194,146.033201 907.671721,146.033201 C890.898484,146.033201 874.604483,152.265604 862.144364,165.209827 L862.144364,80.8326693 L814.700066,80.8326693 L814.700066,333.484728 L862.144364,333.484728 L862.144364,220.342629 C862.144364,196.371846 877.95913,187.742364 892.815425,187.742364 C907.671721,187.742364 923.965722,195.89243 923.965722,220.342629 L923.965722,333.005312 L971.41002,333.005312 L971.41002,333.484728 Z M1089.78115,333.484728 L1089.78115,294.652058 L1072.52868,294.652058 C1061.02703,294.652058 1056.23467,288.419655 1056.23467,277.87251 L1056.23467,189.180611 L1089.78115,189.180611 L1089.78115,154.183267 L1056.23467,154.183267 L1056.23467,99.0504648 L1008.79038,99.0504648 L1008.79038,153.703851 L988.662492,153.703851 L988.662492,188.701195 L1008.79038,188.701195 L1008.79038,280.269588 C1008.79038,306.63745 1025.08438,333.005312 1063.90244,333.005312 L1089.78115,333.005312 L1089.78115,333.484728 Z M1151.12327,255.339973 C1151.12327,279.310757 1165.97956,296.569721 1192.81674,296.569721 C1213.42386,296.569721 1223.96704,290.816733 1235.94792,279.310757 L1264.70204,306.63745 C1245.53263,325.334661 1226.84245,335.881806 1192.33751,335.881806 C1147.28939,335.881806 1104.15821,316.225764 1104.15821,240.957503 C1104.15821,180.551129 1137.70468,146.512616 1187.06592,146.512616 C1240.26104,146.512616 1269.97363,183.907039 1269.97363,234.7251 L1269.97363,255.339973 L1151.12327,255.339973 Z M1219.17469,204.042497 C1213.9031,193.015936 1203.35992,184.86587 1187.54515,184.86587 C1171.73039,184.86587 1160.70798,193.015936 1155.91562,204.042497 C1153.04021,210.754316 1152.08174,215.548473 1151.6025,223.698539 L1223.96704,223.698539 C1223.00857,215.548473 1222.0501,210.754316 1219.17469,204.042497 Z M1454,333.484728 L1454,215.069057 C1454,194.933599 1450.16612,177.674635 1434.83059,162.333333 C1424.28741,152.265604 1408.95188,146.033201 1389.78247,146.033201 C1372.05076,146.033201 1354.79829,152.265604 1342.33817,165.209827 L1342.33817,147.950863 L1295.85234,147.950863 L1295.85234,333.005312 L1343.29664,333.005312 L1343.29664,221.780876 C1343.29664,196.371846 1360.06987,188.22178 1374.92617,188.22178 C1389.78247,188.22178 1406.5557,196.851262 1406.5557,221.780876 L1406.5557,333.484728 L1454,333.484728 Z M600.002637,70.7649402 C600.002637,54.9442231 587.063283,42 571.248517,42 C555.433751,42 542.494397,54.9442231 542.494397,70.7649402 C542.494397,86.5856574 555.433751,99.5298805 571.248517,99.5298805 C587.542518,99.5298805 600.002637,87.065073 600.002637,70.7649402 Z" id="Shape" fill="#00788A"></path>
            </g>
        </g>
    </g>
</svg>