<?xml version="1.0" encoding="UTF-8"?>
<svg width="1900px" height="1000px" viewBox="0 0 1900 1000" version="1.1" xmlns="http://www.w3.org/2000/svg" xmlns:xlink="http://www.w3.org/1999/xlink">
    <!-- Generator: Sketch 52.5 (67469) - http://www.bohemiancoding.com/sketch -->
    <title>tealium_logo</title>
    <desc>Created with Sketch.</desc>
    <defs>
        <rect id="path-1" x="0" y="0" width="1900" height="1000"></rect>
    </defs>
    <g id="Page-1" stroke="none" stroke-width="1" fill="none" fill-rule="evenodd">
        <g id="tealium_logo">
            <mask id="mask-2" fill="white">
                <use xlink:href="#path-1"></use>
            </mask>
            <rect stroke-opacity="0.01" stroke="#FFFFFF" x="0.5" y="0.5" width="1899" height="999"></rect>
            <g id="tealium_logo_color" mask="url(#mask-2)">
                <g transform="translate(206.000000, 329.000000)">
                    <path d="M217.997287,177.877067 C217.498992,156.69733 200.058668,139.75354 178.881133,140.002713 C157.454449,140.50106 140.512421,157.943196 141.010716,179.122933 C141.509011,200.30267 158.949334,217.24646 180.12687,216.997287 C201.304406,216.748113 218.246434,199.056804 217.997287,177.877067 Z" id="Path" fill="#007CC2"></path>
                    <path d="M101.850074,209.853182 C113.917957,202.378349 132.271195,210.102344 142.830592,227.0453 C153.38999,243.988256 152.132919,263.671984 140.065036,271.146818 C127.997153,278.621651 109.643915,270.897656 99.0845175,253.9547 C88.5251201,236.762583 90.0336054,217.078855 101.850074,209.853182 Z" id="Path" fill="#007CC2"></path>
                    <path d="M64.8067541,252.971465 C74.9826774,248.754209 88.6333062,258.677164 95.3345239,274.801968 C102.035742,291.174845 99.3056159,307.795796 89.1296927,312.013052 C78.9537694,316.230308 65.3031406,306.555426 58.6019229,290.182549 C51.9007051,273.809672 54.8790241,257.188721 64.8067541,252.971465 Z" id="Path" fill="#007CC2"></path>
                    <path d="M31.0940693,286.434596 C38.0098156,283.702566 48.383435,294.133955 54.3112176,309.781038 C59.9920092,325.428122 59.0040454,340.08174 52.0882991,342.565404 C45.1725528,345.297434 34.5519425,334.866045 28.8711509,319.218962 C22.9433683,303.571878 23.9313321,288.91826 31.0940693,286.434596 Z" id="Path" fill="#007CC2"></path>
                    <path d="M130.594308,77.7597304 C144.053385,81.773077 150.533681,100.585639 145.050354,119.649035 C139.567026,138.963266 123.864769,151.25414 110.405692,147.240793 C96.9466151,143.227446 90.4663188,124.414884 95.9496465,105.100654 C101.432974,86.0372577 117.135231,73.7463838 130.594308,77.7597304 Z" id="Path" fill="#007CC2"></path>
                    <path d="M81.4636845,33.4763592 C92.167756,36.4786619 96.8974621,52.7411344 92.167756,69.7541826 C87.43805,87.0174227 75.2403871,98.5262494 64.5363155,95.5239468 C53.832244,92.5216442 49.1025379,76.5093635 53.832244,58.9959315 C58.56195,41.9828833 71.0085448,30.4740566 81.4636845,33.4763592 Z" id="Path" fill="#007CC2"></path>
                    <path d="M44.2768443,0.127848063 C51.8331512,1.61510363 55.1075508,15.9919074 51.5812743,32.3517186 C48.0549977,48.4636538 39.2393064,60.3616983 31.6829995,58.8744427 C24.3785695,57.3871872 20.852293,43.0103834 24.3785695,26.6505722 C28.1567229,10.2907611 36.9724143,-1.3594075 44.2768443,0.127848063 Z" id="Path" fill="#007CC2"></path>
                    <ellipse id="Oval" fill="#959BA1" transform="translate(75.593923, 172.991004) rotate(-1.064291) translate(-75.593923, -172.991004) " cx="75.593923" cy="172.991004" rx="21.2067791" ry="30.2056386"></ellipse>
                    <path d="M26.7368023,222.875218 C23.9639425,207.630927 29.2575839,193.886074 38.5844759,192.136729 C47.9113678,190.63729 57.4903379,201.633173 60.2631977,217.127371 C63.0360575,232.371662 57.7424161,246.116515 48.4155241,247.86586 C39.0886322,249.365299 29.2575839,238.11951 26.7368023,222.875218 Z" id="Path" fill="#959BA1"></path>
                    <path d="M28.9356307,253.502217 C24.9054106,239.760925 16.3411928,230.266942 9.79208518,232.265676 C3.24297752,234.264409 0.97597871,246.756492 5.00619881,260.497783 C9.03641891,274.239075 17.6006366,283.733058 24.1497443,281.734324 C30.9507407,279.985433 32.9658508,267.243508 28.9356307,253.502217 Z" id="Path" fill="#959BA1"></path>
                    <path d="M56.9746195,122.754173 C56.7229042,107.892813 49.171444,95.7560357 40.3614071,96.0037251 C31.5513702,96.2514144 24.755056,108.388192 25.0067713,123.249552 C25.2584867,138.110912 32.5582315,150 41.3682684,150 C50.4300207,149.752311 57.4780502,137.615533 56.9746195,122.754173 Z" id="Path" fill="#959BA1"></path>
                    <path d="M25.9917319,82.7526209 C25.7394619,69.3941503 19.6849832,58.7568497 12.6214247,59.0042287 C5.55786616,59.2516078 -0.244342625,70.1362876 0.00792732162,83.2473791 C0.260197269,96.6058497 6.314676,107.24315 13.3782345,106.995771 C20.694063,106.995771 26.2440018,96.1110915 25.9917319,82.7526209 Z" id="Path" fill="#959BA1"></path>
                    <g id="Group" stroke-width="1" fill="none" transform="translate(270.000000, 95.000000)">
                        <polygon id="Path" fill="#007CC2" points="159.672802 38.8655738 97.0511247 38.8655738 97.0511247 146.511475 62.1226994 146.511475 62.1226994 38.8655738 0.249488753 38.8655738 0.249488753 10.2098361 159.672802 10.2098361"></polygon>
                        <polygon id="Path" fill="#007CC2" points="328.07771 146.760656 192.854806 146.760656 192.854806 10.2098361 328.07771 10.2098361 328.07771 38.8655738 227.783231 38.8655738 227.783231 64.7803279 316.351738 64.7803279 316.351738 91.9409836 227.783231 91.9409836 227.783231 118.852459 328.07771 118.852459"></polygon>
                        <path d="M536.650307,146.760656 L499.476483,146.760656 L486.00409,119.101639 L402.924335,119.101639 L389.202454,146.760656 L353.026585,146.760656 L422.883436,10.4590164 L466.04499,10.4590164 L536.650307,146.760656 Z M473.529652,93.9344262 L444.838446,39.1147541 L415.648262,93.9344262 L473.529652,93.9344262 Z" id="Shape" fill="#007CC2" fill-rule="nonzero"></path>
                        <polygon id="Path" fill="#007CC2" points="681.852761 146.760656 558.355828 146.760656 558.355828 10.2098361 593.284254 10.2098361 593.284254 116.609836 681.852761 116.609836"></polygon>
                        <polygon id="Path" fill="#007CC2" points="745.472393 146.760656 710.543967 146.760656 710.543967 10.2098361 745.472393 10.2098361"></polygon>
                        <path d="M946.809816,89.6983607 C946.809816,134.8 925.603272,149.003279 862.981595,149.003279 C800.359918,149.003279 781.149284,136.793443 781.149284,89.6983607 L781.149284,10.2098361 L815.329243,10.2098361 L815.329243,87.2065574 C815.329243,116.111475 832.04499,119.101639 863.231084,119.101639 C892.421268,119.101639 912.879346,114.118033 912.879346,87.2065574 L912.879346,10.2098361 L947.059305,10.2098361 L947.059305,89.6983607 L946.809816,89.6983607 Z" id="Path" fill="#007CC2"></path>
                        <polygon id="Path" fill="#007CC2" points="1200.29039 146.760656 1163.11656 146.760656 1146.40082 40.8590164 1103.73824 146.760656 1064.06953 146.760656 1022.40491 40.8590164 1005.19018 146.760656 969.263804 146.760656 993.214724 10.4590164 1044.8589 10.4590164 1083.52965 110.380328 1124.6953 10.4590164 1175.84049 10.4590164"></polygon>
                        <path d="M1218.00409,9.21311475 C1218.00409,14.1967213 1214.01227,18.1836066 1208.77301,18.1836066 C1203.53374,18.1836066 1199.54192,14.1967213 1199.54192,9.21311475 C1199.54192,4.2295082 1203.53374,0.242622951 1208.77301,0.242622951 C1214.01227,0.242622951 1218.00409,4.2295082 1218.00409,9.21311475 Z M1201.78732,9.21311475 C1201.78732,13.2 1204.78119,16.4393443 1208.77301,16.4393443 C1212.76483,16.4393443 1215.5092,13.2 1215.5092,9.46229508 C1215.5092,5.47540984 1212.51534,2.23606557 1208.52352,2.23606557 C1204.78119,1.98688525 1201.78732,5.22622951 1201.78732,9.21311475 Z M1207.27607,13.947541 L1205.28016,13.947541 L1205.28016,4.97704918 C1206.02863,4.72786885 1207.27607,4.72786885 1208.77301,4.72786885 C1210.51943,4.72786885 1211.26789,4.97704918 1211.76687,5.47540984 C1212.26585,5.97377049 1212.76483,6.47213115 1212.76483,7.46885246 C1212.76483,8.46557377 1212.01636,9.21311475 1211.0184,9.46229508 C1212.01636,9.71147541 1212.51534,10.4590164 1212.76483,11.704918 C1213.01431,12.9508197 1213.2638,13.6983607 1213.51329,13.947541 L1211.26789,13.947541 C1211.0184,13.6983607 1210.76892,12.7016393 1210.51943,11.704918 C1210.26994,10.7081967 1209.77096,10.2098361 1208.77301,10.2098361 L1207.77505,10.2098361 L1207.77505,13.947541 L1207.27607,13.947541 Z M1207.27607,8.7147541 L1208.27403,8.7147541 C1209.52147,8.7147541 1210.26994,8.21639344 1210.26994,7.46885246 C1210.26994,6.72131148 1209.77096,6.22295082 1208.27403,6.22295082 C1207.77505,6.22295082 1207.27607,6.22295082 1207.02658,6.22295082 L1207.02658,8.7147541 L1207.27607,8.7147541 Z" id="Shape" fill="#007DC2" fill-rule="nonzero"></path>
                    </g>
                </g>
            </g>
        </g>
    </g>
</svg>