<svg id="img_logo-large" xmlns="http://www.w3.org/2000/svg" width="200" height="22.088" viewBox="0 0 200 22.088">
  <g id="Group_145" data-name="Group 145" transform="translate(29.651 5.02)">
    <path id="Path_146" data-name="Path 146" d="M54.541,14.595h.736C56.348,10.713,53.871,7.5,50.458,7.5a6.091,6.091,0,1,0,0,12.182,6.012,6.012,0,0,0,4.618-2.075l-1.74-2.075a3.781,3.781,0,0,1-2.945,1.406,3.463,3.463,0,0,1-3.213-2.343h7.363Zm-4.551-4.351a2.6,2.6,0,0,1,2.744,1.941H47.379A2.561,2.561,0,0,1,49.989,10.244Z" transform="translate(-44.3 -7.5)" fill="#060e26"/>
  </g>
  <g id="Group_146" data-name="Group 146" transform="translate(67.602 5.02)">
    <path id="Path_147" data-name="Path 147" d="M111.241,14.595h.736c1.071-3.882-1.406-7.095-4.819-7.095a6.091,6.091,0,1,0,0,12.182,6.012,6.012,0,0,0,4.618-2.075l-1.74-2.075a3.781,3.781,0,0,1-2.945,1.406,3.463,3.463,0,0,1-3.213-2.343h7.363Zm-4.618-4.351a2.6,2.6,0,0,1,2.744,1.941h-5.355A2.561,2.561,0,0,1,106.622,10.244Z" transform="translate(-101 -7.5)" fill="#060e26"/>
  </g>
  <g id="Group_147" data-name="Group 147" transform="translate(80.452 5.02)">
    <path id="Path_148" data-name="Path 148" d="M130.441,14.595h.736c1.071-3.882-1.406-7.095-4.819-7.095a6.091,6.091,0,1,0,0,12.182,6.012,6.012,0,0,0,4.618-2.075l-1.74-2.075a3.781,3.781,0,0,1-2.945,1.406,3.463,3.463,0,0,1-3.213-2.343h7.363Zm-4.618-4.351a2.6,2.6,0,0,1,2.744,1.941h-5.355A2.671,2.671,0,0,1,125.822,10.244Z" transform="translate(-120.2 -7.5)" fill="#060e26"/>
  </g>
  <g id="Group_148" data-name="Group 148" transform="translate(17.871 5.154)">
    <path id="Path_149" data-name="Path 149" d="M33.929,7.7v7.363h0a1.9,1.9,0,0,1-2.075,1.673,1.9,1.9,0,0,1-2.075-1.673V7.7H26.7v7.363c0,2.41,2.276,4.418,5.154,4.418s5.154-1.941,5.154-4.418V7.7Z" transform="translate(-26.7 -7.7)" fill="#060e26"/>
  </g>
  <g id="Group_149" data-name="Group 149">
    <path id="Path_150" data-name="Path 150" d="M5.154,5.154a5.454,5.454,0,0,0-2.075.4V0H0V12.583C0,14.993,2.276,17,5.154,17s5.154-1.941,5.154-4.418V9.571C10.241,7.095,7.965,5.154,5.154,5.154Zm0,9.036a1.9,1.9,0,0,1-2.075-1.673V9.5h0A1.9,1.9,0,0,1,5.154,7.831,1.9,1.9,0,0,1,7.229,9.5v3.012h0A1.947,1.947,0,0,1,5.154,14.19Z" fill="#060e26"/>
  </g>
  <g id="Group_150" data-name="Group 150" transform="translate(59.436 5.154)">
    <path id="Path_151" data-name="Path 151" d="M94.088,7.7a5.454,5.454,0,0,0-2.075.4V7.7H88.8V19.48h3.213V12.118h0a1.9,1.9,0,0,1,2.075-1.673,2.775,2.775,0,0,1,1.071.2l1.673-2.276A6.626,6.626,0,0,0,94.088,7.7Z" transform="translate(-88.8 -7.7)" fill="#060e26"/>
  </g>
  <g id="Group_151" data-name="Group 151" transform="translate(47.053 4.618)">
    <path id="Path_152" data-name="Path 152" d="M75.454,6.9c-2.811,0-5.154,1.941-5.154,4.418v3.012c0,2.41,2.276,4.418,5.154,4.418a5.454,5.454,0,0,0,2.075-.4v1.138c0,.937-.937,1.539-2.075,1.539a6.729,6.729,0,0,1-1.673-.268V23.7c.669.067,1.874.134,2.476.134a4.16,4.16,0,0,0,4.351-4.418v-8.1C80.608,8.841,78.265,6.9,75.454,6.9Zm2.075,7.363h0a2.123,2.123,0,0,1-4.15,0V11.251h0a2.123,2.123,0,0,1,4.15,0v3.012Z" transform="translate(-70.3 -6.9)" fill="#060e26"/>
  </g>
  <g id="Group_152" data-name="Group 152" transform="translate(93.504 5.154)">
    <path id="Path_153" data-name="Path 153" d="M144.854,7.7a5.454,5.454,0,0,0-2.075.4V7.7H139.7V19.48h3.079V12.118h0a2.123,2.123,0,0,1,4.15,0V19.48h3.079V12.118C150.008,9.708,147.732,7.7,144.854,7.7Z" transform="translate(-139.7 -7.7)" fill="#060e26"/>
  </g>
  <g id="Group_153" data-name="Group 153" transform="translate(12.516)">
    <rect id="Rectangle_738" data-name="Rectangle 738" width="3.079" height="16.934" fill="#060e26"/>
  </g>
  <g id="Group_157" data-name="Group 157" transform="translate(110.434 0.067)">
    <g id="s_1_" transform="translate(79.586 5.146)">
      <path id="Path_154" data-name="Path 154" d="M289.188,12.147c-2.945.067-2.677-1.673-.268-1.807a2.816,2.816,0,0,1,2.075.8l2.142-1.473A5.482,5.482,0,0,0,289.388,7.8c-2.811-.134-4.819,1.406-4.953,3.079-.134,2.142,1.138,3.681,4.418,3.748,2.543.067,2.543,2.276-.067,2.209a5.712,5.712,0,0,1-2.811-1.2L283.9,17.5a6.07,6.07,0,0,0,4.351,2.008c3.28.2,5.555-1.539,5.622-3.414C294.007,13.552,292.133,12.08,289.188,12.147Z" transform="translate(-283.9 -7.788)" fill="#0835af"/>
    </g>
    <g id="n_1_" transform="translate(12.386 5.087)">
      <path id="Path_155" data-name="Path 155" d="M188.654,7.7a5.454,5.454,0,0,0-2.075.4V7.7H183.5V19.48h3.079V12.118h0a2.123,2.123,0,0,1,4.15,0V19.48h3.079V12.118C193.741,9.708,191.465,7.7,188.654,7.7Z" transform="translate(-183.5 -7.7)" fill="#0835af"/>
    </g>
    <g id="l_1_" transform="translate(37.084)">
      <rect id="Rectangle_739" data-name="Rectangle 739" width="3.079" height="16.934" fill="#0835af"/>
    </g>
    <g id="i_1_" transform="translate(62.92 1.205)">
      <g id="Group_154" data-name="Group 154" transform="translate(0 3.882)">
        <rect id="Rectangle_740" data-name="Rectangle 740" width="3.079" height="11.78" fill="#0835af"/>
      </g>
      <g id="Group_155" data-name="Group 155">
        <rect id="Rectangle_741" data-name="Rectangle 741" width="3.079" height="3.079" fill="#0835af"/>
      </g>
    </g>
    <g id="c_1_" transform="translate(67.605 4.953)">
      <path id="Path_156" data-name="Path 156" d="M272.158,16.871a3.314,3.314,0,0,1-3.347-3.347,3.4,3.4,0,0,1,3.347-3.347,3.289,3.289,0,0,1,2.811,1.539h0l1.807-2.142h0A6.225,6.225,0,0,0,272.158,7.5a6.091,6.091,0,1,0,0,12.182,6.012,6.012,0,0,0,4.618-2.075l-1.807-2.142A3.513,3.513,0,0,1,272.158,16.871Z" transform="translate(-266 -7.5)" fill="#0835af"/>
    </g>
    <g id="a_2_" transform="translate(0 5.087)">
      <path id="Path_157" data-name="Path 157" d="M175.573,12.921v-.8c0-2.41-2.276-4.418-5.154-4.418a5.615,5.615,0,0,0-5.288,3.213l2.075,1.406a3.26,3.26,0,0,1,3.146-1.874,1.993,1.993,0,0,1,2.075,2.075v.4h-4.083A3.383,3.383,0,0,0,165,16.736c.067,1.2,1.339,3.079,4.284,3.079,2.343,0,2.945-.8,3.213-1v.736h3.079V12.921Zm-6.091,4.418c-1.874,0-1.807-2.075-.268-2.075h3.213v.2h0C172.495,16.067,171.357,17.338,169.483,17.338Z" transform="translate(-164.994 -7.7)" fill="#0835af"/>
    </g>
    <g id="a_1_" transform="translate(24.363 5.087)">
      <path id="Path_158" data-name="Path 158" d="M211.973,12.921v-.8c0-2.41-2.276-4.418-5.154-4.418a5.615,5.615,0,0,0-5.288,3.213l2.075,1.406a3.26,3.26,0,0,1,3.146-1.874,1.993,1.993,0,0,1,2.075,2.075v.4h-4.083a3.383,3.383,0,0,0-3.347,3.815c.067,1.2,1.339,3.079,4.284,3.079,2.343,0,2.945-.8,3.213-1v.736h3.079V12.921Zm-6.024,4.418c-1.874,0-1.807-2.075-.268-2.075h3.213v.2h0C208.895,16.067,207.824,17.338,205.949,17.338Z" transform="translate(-201.394 -7.7)" fill="#0835af"/>
    </g>
    <g id="Group_156" data-name="Group 156" transform="translate(55.022 1.205)">
      <path id="Path_159" data-name="Path 159" d="M250.279,17.629V8.861h3.012V5.782h-3.012V1.9H247.2V17.629Z" transform="translate(-247.2 -1.9)" fill="#0835af"/>
    </g>
    <g id="y_1_" transform="translate(42.439 5.154)">
      <path id="Path_160" data-name="Path 160" d="M235.629,19.58v-.4a5.214,5.214,0,0,1-2.075.4c-2.811,0-5.154-1.941-5.154-4.418V7.8h3.079v7.363a2.123,2.123,0,0,0,4.15,0h0V7.8h3.079V20.249a4.16,4.16,0,0,1-4.351,4.418,16.209,16.209,0,0,1-2.476-.134V21.521a7.265,7.265,0,0,0,1.673.268c1.138,0,2.075-.6,2.075-1.539Z" transform="translate(-228.4 -7.8)" fill="#0835af"/>
    </g>
  </g>
</svg>
