<svg xmlns="http://www.w3.org/2000/svg" width="351.276" height="312.37" viewBox="0 0 351.276 312.37">
  <g id="Group_2167" data-name="Group 2167" transform="translate(-125.051 -95.963)">
    <path id="Path_900" data-name="Path 900" d="M448.594,380.22c-69.956,63.4-135.689,4.258-185.416-28.126s58.643-71.347,58.608-107.927-101.237-51.729-15.354-101.616S476.053,162.077,453.709,210.5,518.55,316.82,448.594,380.22Z" fill="#e5ebff"/>
    <path id="Path_901" data-name="Path 901" d="M162.614,217.2c27.276-20.8,4.15-53.679,58.552-65.4s116.563-82.4,159.751-45.059-73.546,66.754-78.8,130.942,76.736,123.042,35.553,127.575c-1.153.128-62.84,43.525-144.9,6.38C80.707,320.92,135.337,238.007,162.614,217.2Z" fill="#0835af"/>
    <path id="Path_1227" data-name="Path 1227" d="M350.652,146.648c-22.55-14.428-14.968-14.36-22.426-20.589-18.166-15.173-35.648-10.413-57.835,1-12.567-12.479-32.467-13.409-47.214-1.233-16.548,13.664-6.155,33.909-8.452,55.794-2.569,24.485,3.555,46.394,4.436,62.333,2.588,46.817-.5,64.1,20.719,26.493,1.158-2.051,4.111-9.194,7.869-19.231,6.26,1.935,12.669,3.338,15.328,5.2,5.751,4.027,10.953,7.386,15.2,10.008A57.121,57.121,0,0,1,264.56,243.84a86.736,86.736,0,0,1-9.225-.054,15.877,15.877,0,0,1-4.563-.8h0c-.25-.082-.492-.182-.737-.276-.194-.076-.39-.148-.581-.231-.238-.1-.471-.216-.7-.331-.188-.092-.375-.187-.558-.287q-.336-.181-.662-.378c-.185-.112-.364-.231-.543-.35-.206-.137-.412-.271-.611-.417s-.39-.3-.583-.46c-.286-.232-.565-.472-.834-.722-.2-.187-.4-.372-.593-.569-.151-.155-.292-.318-.436-.479-.169-.189-.336-.379-.5-.576-.135-.166-.265-.335-.393-.507-.158-.211-.309-.426-.457-.645-.112-.168-.225-.334-.332-.506-.162-.262-.312-.532-.459-.8-.075-.138-.156-.272-.227-.413q-.309-.615-.567-1.26c-.05-.125-.089-.256-.136-.383-.118-.321-.23-.645-.328-.974-.049-.168-.092-.339-.136-.509-.079-.3-.15-.608-.21-.917-.035-.176-.068-.353-.1-.531-.053-.328-.093-.662-.125-1-.015-.157-.036-.313-.046-.472-.033-.493-.049-.991-.036-1.5a15.875,15.875,0,0,1,16.289-15.449,7.675,7.675,0,0,1,1.19.125c.213.038.423.106.634.161.178.047.358.08.534.138.261.087.518.2.776.311.123.053.248.093.371.151.263.125.522.276.781.424.132.076.267.138.4.219,1.41-6.673,6.2,1.284,3.751-12.412v0c-.02-.113-.045-.24-.066-.356-.057-.312-.115-.625-.179-.959-.037-.19-.078-.395-.117-.593-.064-.322-.126-.639-.2-.981-.059-.29-.126-.6-.191-.91-.059-.279-.114-.546-.177-.837-.134-.617-.276-1.261-.43-1.938.68-.847,1.384-1.655,2.1-2.438.06-.064.117-.132.177-.2.667-.717,1.358-1.4,2.06-2.064.124-.116.244-.238.368-.353h0c11.359-10.494,27.225-14.31,47.949-14.241,3.854.013.971-16.087,2.758-16.468,1.073-.229,5.687,14.486,7.663,14.418s14.78.752,18.576,1.763c3.184.848,10.733,12.344,11.325,19.3a34.781,34.781,0,0,1-.174,5.074C361.975,186.317,371.019,159.68,350.652,146.648Z" fill="#e5ebff"/>
    <path id="Path_1228" data-name="Path 1228" d="M335.92,271.8h0Z" fill="#060e26"/>
    <g id="Group_2164" data-name="Group 2164">
      <path id="Path_1229" data-name="Path 1229" d="M372.685,310.107c-5.059-1.024-34.371.05-34.371-16.439,0-4.393.218-8.792.536-12.886,9.055-3.287,22.191-25.575,20.3-50.937a15.856,15.856,0,0,0-3.322-27.353,70.2,70.2,0,0,0,.407-8.183c-.592-6.957-8.141-18.453-11.325-19.3-3.8-1.011-16.6-1.83-18.576-1.763s-6.59-14.647-7.663-14.418c-1.787.381,1.1,16.481-2.758,16.468-23.762-.079-41.141,4.943-52.658,19.292,5.125,22.635-.8,11.44-2.395,18.989a9.345,9.345,0,0,0-4.684-1.529,15.875,15.875,0,0,0-.84,31.739,87.019,87.019,0,0,0,9.21.056,56.136,56.136,0,0,0,17.833,26.3l2.138,19.686c0,9.091-10.052,13.514-15.11,14.538a47.047,47.047,0,0,0,1.019,20.709c6.005,21.929,57.457,64.819,113.346,22.371C412.167,325.879,372.687,310.259,372.685,310.107Z" fill="#fff"/>
      <path id="Path_1230" data-name="Path 1230" d="M428.221,356.335c-6.464-10.223-8.122-32.258-7.344-44.637.427-6.789,3.586-9.908,3.4-16.339-.205-7.3.072-21.431-1.152-25.99-1.371-5.108-7.567-7.429-12.513-11.421-7.013-5.66-8.851-4.768-9.945-9.936a198.156,198.156,0,0,1-3.432-26.852c-.676-11.186-1.034-13.8-5.007-10.1-6.933,6.452-3.9,20.106-4.2,27.587-.121,3.026.92,10.96,2.2,18.221-1.946-.325-4.287-1.865-7.416,2.257-1.21,1.594.184,5.616.406,10.106a44.841,44.841,0,0,1-4.52-5.4c-3.16-4.853-7.779-8.775-9.592-6.7-1.607,1.842-.294,9.715,1.233,13.816,1.641,4.407,6.975,12.924,11.113,23.144,1.12,2.764,1.63,3.723,9.638,8.278,4.881,2.775,3.916,8.57,3.985,10.242.686,16.422-3.346,50.348-3.887,59.29C390.812,378.244,430.757,360.345,428.221,356.335Z" fill="#fff"/>
    </g>
    <g id="Group_2165" data-name="Group 2165">
      <path id="Path_1231" data-name="Path 1231" d="M255.146,216.043a12.88,12.88,0,0,0-10.32,8.485,1.5,1.5,0,1,0,2.836.98,9.854,9.854,0,0,1,7.9-6.493,1.5,1.5,0,1,0-.411-2.972Z" fill="#060e26"/>
      <path id="Path_1232" data-name="Path 1232" d="M322.954,253.96c-8.92,3.822-11.234-.12-11.353-.34a1.5,1.5,0,0,0-2.687,1.336c.1.2,1.868,3.665,7.284,3.665a20.39,20.39,0,0,0,7.938-1.9,1.5,1.5,0,0,0-1.182-2.758Z" fill="#060e26"/>
      <path id="Path_1233" data-name="Path 1233" d="M304.854,191.266a1.484,1.484,0,0,0-1.554-1.443c-.561.02-13.826.594-20.534,8.178a15.2,15.2,0,0,0-3.685,11.828,1.5,1.5,0,0,0,1.492,1.371c.043,0,.087,0,.13,0a1.5,1.5,0,0,0,1.366-1.623,12.31,12.31,0,0,1,2.939-9.577c5.846-6.62,18.279-7.169,18.4-7.174A1.5,1.5,0,0,0,304.854,191.266Z" fill="#060e26"/>
      <path id="Path_1234" data-name="Path 1234" d="M350.963,193.034c-5.942-10.642-13.408-11.242-16.527-10.072a1.5,1.5,0,0,0,1.054,2.809c2.555-.957,8.3.565,12.854,8.725a1.5,1.5,0,1,0,2.619-1.462Z" fill="#060e26"/>
      <path id="Path_1235" data-name="Path 1235" d="M334.283,225.816c-3.645-2.883-9.378-12.875-9.435-12.975a1.5,1.5,0,0,0-2.606,1.488c.247.431,6.08,10.6,10.18,13.84a2.188,2.188,0,0,1,1.038,1.908c-.067,1.471-1.6,3.216-3.082,4.18-1.813,1.181-5.112,2.155-5.892,1.9a1.5,1.5,0,1,0-.992,2.831,3.959,3.959,0,0,0,1.3.193,16.61,16.61,0,0,0,7.219-2.415c1.968-1.282,4.314-3.769,4.442-6.556A5.161,5.161,0,0,0,334.283,225.816Z" fill="#060e26"/>
      <path id="Path_1236" data-name="Path 1236" d="M307.161,208.266c-3.836.206-10.9,2.29-13.032,8.8a1.5,1.5,0,0,0,.957,1.893,1.521,1.521,0,0,0,.468.075A1.5,1.5,0,0,0,296.979,218c2.042-6.219,10-6.717,10.342-6.735a1.5,1.5,0,0,0,1.418-1.578A1.481,1.481,0,0,0,307.161,208.266Z" fill="#060e26"/>
      <path id="Path_1237" data-name="Path 1237" d="M334.589,206.035a1.5,1.5,0,0,0,.746,2.9,17.271,17.271,0,0,1,5.035-.4c3.1.26,4.907,1.513,5.54,3.832a1.5,1.5,0,0,0,2.895-.79C346.947,204.776,338.7,204.977,334.589,206.035Z" fill="#060e26"/>
    </g>
    <path id="Path_1238" data-name="Path 1238" d="M171.342,264.159a1.5,1.5,0,0,1-1.213-.616l-4.583-6.286a1.5,1.5,0,1,1,2.424-1.768l4.583,6.286a1.5,1.5,0,0,1-1.211,2.384Z" fill="#e5ebff"/>
    <path id="Path_1239" data-name="Path 1239" d="M184.865,282.711a1.5,1.5,0,0,1-1.213-.616l-4.583-6.286a1.5,1.5,0,0,1,2.424-1.768l4.583,6.286a1.5,1.5,0,0,1-1.211,2.384Z" fill="#e5ebff"/>
    <path id="Path_1240" data-name="Path 1240" d="M181.945,265.821a1.5,1.5,0,0,1-.884-2.712l6.286-4.582a1.5,1.5,0,0,1,1.767,2.424l-6.286,4.582A1.488,1.488,0,0,1,181.945,265.821Z" fill="#e5ebff"/>
    <path id="Path_1241" data-name="Path 1241" d="M163.394,279.345a1.5,1.5,0,0,1-.885-2.712l6.285-4.582a1.5,1.5,0,0,1,1.768,2.424l-6.286,4.582A1.494,1.494,0,0,1,163.394,279.345Z" fill="#e5ebff"/>
    <path id="Path_1242" data-name="Path 1242" d="M386.437,179.832a1.5,1.5,0,0,1-1.061-.439l-11.039-11.04a1.5,1.5,0,0,1,2.121-2.121L387.5,177.271a1.5,1.5,0,0,1-1.06,2.561Z" fill="#0835af"/>
    <path id="Path_1243" data-name="Path 1243" d="M412.691,206.086a1.5,1.5,0,0,1-1.06-.439l-11.04-11.039a1.5,1.5,0,1,1,2.121-2.121l11.04,11.039a1.5,1.5,0,0,1-1.061,2.56Z" fill="#0835af"/>
    <path id="Path_1244" data-name="Path 1244" d="M401.651,179.832a1.5,1.5,0,0,1-1.06-2.561l11.04-11.039a1.5,1.5,0,1,1,2.121,2.121l-11.04,11.04A1.5,1.5,0,0,1,401.651,179.832Z" fill="#0835af"/>
    <path id="Path_1245" data-name="Path 1245" d="M375.4,206.086a1.5,1.5,0,0,1-1.06-2.56l11.039-11.039a1.5,1.5,0,0,1,2.121,2.121l-11.039,11.039A1.5,1.5,0,0,1,375.4,206.086Z" fill="#0835af"/>
    <path id="Path_1246" data-name="Path 1246" d="M255.988,143.734c2.8-5.756.652-9.6,14.368-16.656.9-.461,1.781-.906,2.661-1.345-13.053-4.429-26.83.275-31.677,11.248a20.622,20.622,0,0,0-1.189,12.854C246.008,145.582,254.166,145.217,255.988,143.734Z" fill="#0835af"/>
    <path id="Path_1247" data-name="Path 1247" d="M445.482,344.153a76.227,76.227,0,0,1-3.729-9.25c-2.568-7.131-5.48-15.213-9.585-19.218-2.191-2.138-5.577-3.582-9.734-4.568a28.664,28.664,0,0,1,1.652-6.821,23.946,23.946,0,0,0,1.7-8.979c-.052-1.856-.072-4.153-.094-6.623-.069-7.562-.147-16.134-1.109-19.715-1.114-4.151-4.746-6.542-8.591-9.074-1.487-.98-3.026-1.993-4.427-3.125-2.315-1.867-4.116-3.062-5.43-3.935-2.728-1.811-3.376-2.241-3.99-5.143a199.981,199.981,0,0,1-3.4-26.632c-.538-8.909-.835-12.035-3.018-12.908-1.588-.634-3.17.553-4.508,1.8-5.8,5.393-5.27,14.907-4.847,22.551.124,2.244.241,4.363.173,6.075-.112,2.82.726,9.617,1.841,16.323-1.815-.3-4.17-.094-6.753,3.307-1.129,1.487-.838,3.689-.427,6.465-.492-.611-.913-1.176-1.235-1.67-2.293-3.523-6.1-7.716-9.288-7.939a3.187,3.187,0,0,0-2.691,1.073c-2.508,2.875-.141,12.375.957,15.325a80.5,80.5,0,0,0,3.806,7.854c2.217,4.246,4.975,9.53,7.323,15.33,1.294,3.2,2.034,4.325,10.286,9.018a6.382,6.382,0,0,1,3.176,5.3q-1.686-.01-3.37-.019c-6.163-.027-11.986-.054-17.334-.347-.933-.172-2.344-.28-4.284-.425-9.325-.7-28.731-2.146-28.731-14.519,0-4.02.193-8.046.473-11.853,3.884-1.85,8.166-6.487,11.766-12.834a69.978,69.978,0,0,0,6.631-16.822,35.162,35.162,0,0,0,3.288-4.629c3.371-6.237,3.627-14.027,2.573-21.462a17.292,17.292,0,0,0-7.148-24.482c.041-.558.083-1.109.125-1.64.005-.063.01-.12.014-.182,6.995-15.578,14.258-41.37-6.074-54.379-14.49-9.272-16.215-12.331-17.736-15.03a16.881,16.881,0,0,0-4.537-5.447c-17.516-14.629-34.707-11.416-56.292-.785a32.779,32.779,0,0,0-4.914-1.159,34.931,34.931,0,0,0-16.594-6.954,37.448,37.448,0,0,0-29.165,8.66c-11.74,9.693-10.616,22.612-9.426,36.29.576,6.629,1.173,13.484.435,20.5-1.752,16.7.453,31.921,2.4,45.351.9,6.222,1.751,12.1,2.034,17.222.37,6.7.625,12.813.851,18.208.832,19.971,1.212,29.086,5.439,30.1a3.13,3.13,0,0,0,.735.088c3.389,0,7.63-5.539,16.5-21.251,1.182-2.1,3.959-8.789,7.475-18.125,1.266.376,2.531.737,3.77,1.088,4.145,1.178,8.061,2.289,9.785,3.5,5.668,3.967,10.83,7.3,15.073,9.927q1.752,1.746,3.663,3.335l2.063,19c-.063,8.349-10.036,12.2-13.9,12.986-13.941,2.529-67.825,13.878-77.562,23.377-1.445,1.409-5.374,3.115-9.174,4.766-5.383,2.337-10.948,4.754-13.24,7.651a1.5,1.5,0,0,0,.143,2.019c11.047,10.48,34.308,20.119,65.5,27.14a452.945,452.945,0,0,0,95.135,10.429c23.063,0,42.519-1.926,59.786-6.152a2.561,2.561,0,0,0,1.714,2.31,5.43,5.43,0,0,0,1.955.3c4.726,0,13.38-3.477,17.283-5.156,6.759-2.907,15.59-7.437,18.239-10.637a3.033,3.033,0,0,0,.856-2.806,162.368,162.368,0,0,0,15.309-10.053A1.5,1.5,0,0,0,445.482,344.153ZM360.248,244.141a67.854,67.854,0,0,0,.5-13.675c.4-.329.782-.67,1.148-1.032C362.355,234.6,362.026,239.748,360.248,244.141Zm3.781-27.857a14.283,14.283,0,0,1-3.656,10.377,66.151,66.151,0,0,0-2.031-10,37.387,37.387,0,0,1-1.135-11.761A14.338,14.338,0,0,1,364.029,216.284Zm-97.267-90.461c.361.292.711.6,1.061.906-9.465,5.224-10.644,8.95-11.885,12.882a26.557,26.557,0,0,1-1.126,3.1,23.84,23.84,0,0,1-3.5,1.035,39.951,39.951,0,0,0-10.045,3.581,18.8,18.8,0,0,1,1.445-9.739C246.529,128.944,256.382,124.494,266.762,125.823ZM238.573,269.71c-9.974,17.673-13.01,19.941-13.919,19.721-2.026-.487-2.62-14.738-3.143-27.311-.226-5.4-.481-11.531-.852-18.249-.291-5.257-1.151-11.2-2.061-17.485-1.919-13.257-4.1-28.283-2.381-44.608.766-7.307.157-14.308-.432-21.078-1.168-13.429-2.177-25.027,8.348-33.716a34.97,34.97,0,0,1,22.317-8.315,33.17,33.17,0,0,1,4.527.312,31.993,31.993,0,0,1,10.978,3.639c-9.667.389-18.278,5.357-21.987,13.755a21.941,21.941,0,0,0-1.458,12.811,16.314,16.314,0,0,0-2.69,2.733c-8.974,11.669-6.8,22.194-3.765,31.2-16.714,18.919-16.456,39.124.779,61.74,2.565,3.365,7.575,5.554,12.941,7.3C242.261,261.474,239.564,267.954,238.573,269.71Zm25.365-14.523c-2.139-1.5-6.1-2.622-10.687-3.924-6.69-1.9-15.017-4.263-18.03-8.218-16.648-21.845-16.76-40.455-.353-58.569a1.5,1.5,0,0,0,.307-1.5c-3.046-8.84-5.322-18.38,3.023-29.232,3.46-4.5,9.46-6,13.841-7.093,2.292-.572,3.948-.987,4.895-1.757a1.484,1.484,0,0,0,.4-.508,26.729,26.729,0,0,0,1.463-3.876c1.173-3.716,2.185-6.925,12.244-12.1,22.594-11.63,39.039-15.555,56.222-1.2a14,14,0,0,1,3.846,4.618c1.694,3,3.614,6.41,18.733,16.084,15.974,10.221,12.939,29.685,7.564,44.245a29.312,29.312,0,0,0-1.937-5.607c12.1-20.248-12.454-35.862-12.7-36.018a1.5,1.5,0,0,0-1.587,2.546,41.363,41.363,0,0,1,10.084,9.509c5.062,6.932,5.911,13.886,2.564,20.7-2.731-4.9-6.268-9.128-8.533-9.731-3.737-.995-15.571-1.807-18.62-1.817-.909-1.025-2.734-5.394-3.738-7.8-2.284-5.467-2.9-6.94-4.579-6.58-1.931.411-1.894,2.809-1.819,7.587.041,2.576.124,7.878-.728,8.847h-.443c-25.823,0-42.271,6.134-53.283,19.854a1.5,1.5,0,0,0-.293,1.27c1.479,6.536,2.13,10.7,1.989,12.715-.069,1-.108,1.009-.766,1.217a4.6,4.6,0,0,0-3.035,2.569,10.126,10.126,0,0,0-3.765-.872,17.368,17.368,0,0,0-6.359,33.7,4.908,4.908,0,0,0,4.389,2.739c.094,0,.19,0,.285-.008a4.861,4.861,0,0,0,3.351-1.61c1.253.044,2.492.085,3.686.085.666,0,1.314-.02,1.949-.053a61.238,61.238,0,0,0,7.369,14.511Q267.579,257.726,263.938,255.187Zm-6.432-16.757a4.864,4.864,0,0,0-7.98,2.427,14.366,14.366,0,0,1,6.609-27.311,7.4,7.4,0,0,1,3.05.83c-.386,2.821-.267,7.067.429,13.55.144,1.341.322,2.661.524,3.964a2.767,2.767,0,0,0-.1,1.27,66.251,66.251,0,0,0,2.352,8.809c.048.159.1.313.15.471-1.089.025-2.241,0-3.423-.032a5.036,5.036,0,0,0,.024-.6A4.864,4.864,0,0,0,257.506,238.43ZM262.6,227.6c-1.607-14.969.3-15.571,1.322-15.895,3.376-1.066,3.937-3.423.959-16.74,10.393-12.555,26.018-18.176,50.491-18.176h.547a2.734,2.734,0,0,0,1.978-.84c1.666-1.687,1.733-5.473,1.645-11.055-.007-.425-.014-.884-.018-1.348.224.53.445,1.059.648,1.545,2.909,6.968,4.212,9.649,6.143,9.649l.072,0c2.032-.072,14.618.776,18.139,1.714,2.317.616,9.656,11.4,10.217,17.979a37.686,37.686,0,0,1-.21,5.272c-.38,4.8-.9,11.372.927,17.772,5.517,19.334.51,38.516-6.016,50.02-3.688,6.505-8.144,11.124-11.628,12.054-17.484,4.671-37.068,1.584-51.108-8.052C273.006,262.1,264.67,246.923,262.6,227.6ZM382.864,346.251c-28.529,21.668-54.076,19.582-70.482,14.019-21.229-7.2-37.268-23.75-40.511-35.592a46.672,46.672,0,0,1-1.164-19.073c5.813-1.474,15.309-6.3,15.309-15.778a1.463,1.463,0,0,0-.009-.162l-1.682-15.483c5.038,4.193,21.84,17.2,36.33,17.2.48,0,.959-.014,1.433-.044,9.506-.589,13.247-1.49,14.81-2.332-.049,1.547-.085,3.1-.085,4.657,0,15.157,21.281,16.747,31.507,17.51,1.653.124,3.1.232,3.891.366.1.048.193.092.285.134,5.658,2.565,18.93,9.541,19.983,18.9C393.054,335.7,389.818,340.969,382.864,346.251Zm22.36,22.3c-8.056,3.1-11.539,3.355-12.513,3.152.157-2.42.537-6.441,1.014-11.48,1.338-14.164,3.362-35.569,2.858-47.673-.009-.2,0-.466.012-.782.074-2.351.248-7.856-4.756-10.7-7.713-4.387-8.034-5.181-8.987-7.537-2.4-5.933-5.2-11.289-7.446-15.592a81.161,81.161,0,0,1-3.653-7.513c-1.721-4.621-2.367-11.28-1.509-12.305.032-.037.063-.063.22-.054,1.36.1,4.417,2.64,6.985,6.583a47.635,47.635,0,0,0,4.3,5.115,14.3,14.3,0,0,1-.622,4.936,11.5,11.5,0,0,0,1.019,8.937c1.242,2.329,3.055,4.113,4.621,4.544a6.545,6.545,0,0,0,1.748.254,4.473,4.473,0,0,0,3.219-1.283l.018-.019c1.564,2.174,3.321,3.717,4.628,3.977a7.289,7.289,0,0,0,1.427.15c.529,1.4,1.191,1.62,1.659,1.773a30.6,30.6,0,0,0,6.4.593,11.409,11.409,0,0,0,4.753-.7,2.038,2.038,0,0,0,1.046-1.327c.69-3,.6-5-.3-6.285a3.453,3.453,0,0,0-2.277-1.412l.126-1.032,1.528.085a1.5,1.5,0,1,0,.166-3l-2.93-.163a1.518,1.518,0,0,0-1.573,1.318l-.42,3.448c-.088.713.073,1.952,2.14,2.225.475.062.688.109.777.237s.467.851-.052,3.394c-1.582.416-6.693.148-8.2-.173-.338-.709-.828-3.258-.676-8.967.032-1.179.045-2.264.055-3.259.036-3.016.06-5.2.579-6.456.359-.876,4.02-1.844,7.534-1.991a1.5,1.5,0,0,0-.124-3c-2.054.084-8.857.611-10.186,3.848-.736,1.792-.763,4.212-.8,7.561-.01.982-.023,2.051-.053,3.215a52.19,52.19,0,0,0,.189,7c-.063-.01-.112-.011-.179-.025-1.148-.338-5.776-5.72-5.912-10.93-.162-6.248.214-10.018,1.117-11.207,2.032-2.675,8.272-2.746,10.513-2.547a1.518,1.518,0,0,0,1.627-1.36,1.5,1.5,0,0,0-1.357-1.627c-.991-.09-9.778-.75-13.172,3.72-1.419,1.868-1.919,5.663-1.726,13.1a16.929,16.929,0,0,0,2.006,7.072,2.619,2.619,0,0,1-.441.617c-.187.181-.683.664-2.073.282a6.689,6.689,0,0,1-2.772-3.064,8.548,8.548,0,0,1-.819-6.578c1.306-3.92.71-7.943.23-11.176-.26-1.745-.582-3.917-.185-4.439,2.027-2.671,3.289-2.344,4.883-1.932.388.1.761.193,1.123.252a51.8,51.8,0,0,0,7.292.109,1.5,1.5,0,0,0-.135-3c-1.112.05-3.885.129-5.665.025-1.169-6.828-2.088-14-1.977-16.782.074-1.854-.047-4.043-.176-6.36-.387-7.019-.871-15.754,3.895-20.19a7.623,7.623,0,0,1,1.345-1.064c.611,1.342.917,6.4,1.144,10.157a202.826,202.826,0,0,0,3.461,27.073c.868,4.1,2.339,5.077,5.267,7.022a62.988,62.988,0,0,1,5.2,3.77c1.515,1.223,3.115,2.277,4.663,3.3,3.5,2.306,6.524,4.3,7.344,7.348.862,3.211.941,11.946,1.005,18.964.022,2.49.043,4.808.1,6.679a21.189,21.189,0,0,1-1.539,7.932,29.837,29.837,0,0,0-1.864,8.271c-.734,11.688.631,34.162,7.376,45.216C425.617,358.706,416.544,364.2,405.224,368.55Z" fill="#060e26"/>
    <g id="Group_2166" data-name="Group 2166">
      <path id="Path_1248" data-name="Path 1248" d="M393.536,323.116c.054-1.493.086-2.918.1-4.3a39.122,39.122,0,0,0-7.232-5.318l-.169-.1a1.323,1.323,0,0,0-.889-.278,1.5,1.5,0,0,0-1.481,1.519,1.664,1.664,0,0,0,1.041,1.457A33.424,33.424,0,0,1,393.536,323.116Z" fill="#fff"/>
      <path id="Path_1249" data-name="Path 1249" d="M392.171,344.137a48.151,48.151,0,0,1-7.688,6.846c-30.4,22.283-56.585,20.308-73.2,14.726-14.559-4.893-38.684-20.789-44.227-39.369-3.09-10.354-2.318-16.215-2.22-16.849a1.871,1.871,0,0,0,.022-.235,1.5,1.5,0,0,0-1.474-1.526,1.522,1.522,0,0,0-1.513,1.306c-.179,1.156-.9,7.418,2.31,18.162,3.558,11.928,20.228,32.645,46.147,41.355a73.168,73.168,0,0,0,23.346,3.834c14.947,0,32.937-4.589,52.578-18.984a57.428,57.428,0,0,0,5.507-4.558C391.9,347.3,392.038,345.726,392.171,344.137Z" fill="#fff"/>
    </g>
  </g>
</svg>
